<svg viewBox="0 0 19 19" xmlns="http://www.w3.org/2000/svg" xmlns:xlink="http://www.w3.org/1999/xlink" width="19.000000" height="19.000000" fill="none" customFrame="#000000">
	<g id="Сочетание 1">
		<path id="Линия 1" d="M0 -0.5L15.6525 -0.5L15.6525 0.5L0 0.5L0 -0.5ZM2.5 0Q2.5 0.122817 2.48796 0.245043Q2.47592 0.367269 2.45196 0.487726Q2.428 0.608183 2.39235 0.725712Q2.3567 0.84324 2.3097 0.956709Q2.2627 1.07018 2.2048 1.17849Q2.14691 1.28681 2.07867 1.38893Q2.01044 1.49104 1.93253 1.58598Q1.85461 1.68092 1.76777 1.76777Q1.68092 1.85461 1.58598 1.93253Q1.49104 2.01044 1.38893 2.07867Q1.28681 2.14691 1.17849 2.2048Q1.07018 2.2627 0.956709 2.3097Q0.84324 2.3567 0.725712 2.39235Q0.608183 2.428 0.487726 2.45196Q0.367269 2.47592 0.245043 2.48796Q0.122817 2.5 0 2.5Q-0.122817 2.5 -0.245043 2.48796Q-0.367269 2.47592 -0.487726 2.45196Q-0.608183 2.428 -0.725712 2.39235Q-0.84324 2.3567 -0.956709 2.3097Q-1.07018 2.2627 -1.17849 2.2048Q-1.28681 2.14691 -1.38893 2.07867Q-1.49104 2.01044 -1.58598 1.93253Q-1.68092 1.85461 -1.76777 1.76777Q-1.85461 1.68092 -1.93253 1.58598Q-2.01044 1.49104 -2.07867 1.38893Q-2.14691 1.28681 -2.2048 1.17849Q-2.2627 1.07018 -2.3097 0.956709Q-2.3567 0.84324 -2.39235 0.725712Q-2.428 0.608183 -2.45196 0.487726Q-2.47592 0.367269 -2.48796 0.245043Q-2.5 0.122817 -2.5 0Q-2.5 -0.122817 -2.48796 -0.245043Q-2.47592 -0.367269 -2.45196 -0.487726Q-2.428 -0.608183 -2.39235 -0.725712Q-2.3567 -0.84324 -2.3097 -0.956709Q-2.2627 -1.07018 -2.2048 -1.17849Q-2.14691 -1.28681 -2.07867 -1.38893Q-2.01044 -1.49104 -1.93253 -1.58598Q-1.85461 -1.68092 -1.76777 -1.76777Q-1.68092 -1.85461 -1.58598 -1.93253Q-1.49104 -2.01044 -1.38893 -2.07867Q-1.28681 -2.14691 -1.17849 -2.2048Q-1.07018 -2.2627 -0.956709 -2.3097Q-0.84324 -2.3567 -0.725712 -2.39235Q-0.608183 -2.428 -0.487726 -2.45196Q-0.367269 -2.47592 -0.245043 -2.48796Q-0.122817 -2.5 0 -2.5Q0.122817 -2.5 0.245043 -2.48796Q0.367269 -2.47592 0.487726 -2.45196Q0.608183 -2.428 0.725712 -2.39235Q0.84324 -2.3567 0.956709 -2.3097Q1.07018 -2.2627 1.17849 -2.2048Q1.28681 -2.14691 1.38893 -2.07867Q1.49104 -2.01044 1.58598 -1.93253Q1.68092 -1.85461 1.76777 -1.76777Q1.85461 -1.68092 1.93253 -1.58598Q2.01044 -1.49104 2.07867 -1.38893Q2.14691 -1.28681 2.2048 -1.17849Q2.2627 -1.07018 2.3097 -0.956709Q2.3567 -0.84324 2.39235 -0.725712Q2.428 -0.608183 2.45196 -0.487726Q2.47592 -0.367269 2.48796 -0.245043Q2.5 -0.122817 2.5 0ZM18.1525 0Q18.1525 0.122817 18.1404 0.245043Q18.1284 0.367269 18.1044 0.487726Q18.0805 0.608183 18.0448 0.725712Q18.0092 0.84324 17.9622 0.956709Q17.9152 1.07018 17.8573 1.17849Q17.7994 1.28681 17.7311 1.38893Q17.6629 1.49104 17.585 1.58598Q17.5071 1.68092 17.4202 1.76777Q17.3334 1.85461 17.2385 1.93253Q17.1435 2.01044 17.0414 2.07867Q16.9393 2.14691 16.831 2.2048Q16.7227 2.2627 16.6092 2.3097Q16.4957 2.3567 16.3782 2.39235Q16.2607 2.428 16.1402 2.45196Q16.0197 2.47592 15.8975 2.48796Q15.7753 2.5 15.6525 2.5Q15.5297 2.5 15.4074 2.48796Q15.2852 2.47592 15.1648 2.45196Q15.0443 2.428 14.9268 2.39235Q14.8092 2.3567 14.6958 2.3097Q14.5823 2.2627 14.474 2.2048Q14.3657 2.14691 14.2636 2.07867Q14.1614 2.01044 14.0665 1.93253Q13.9716 1.85461 13.8847 1.76777Q13.7979 1.68092 13.7199 1.58598Q13.642 1.49104 13.5738 1.38893Q13.5056 1.28681 13.4477 1.17849Q13.3898 1.07018 13.3428 0.956709Q13.2958 0.84324 13.2601 0.725712Q13.2245 0.608183 13.2005 0.487726Q13.1766 0.367269 13.1645 0.245043Q13.1525 0.122817 13.1525 0Q13.1525 -0.122817 13.1645 -0.245043Q13.1766 -0.367269 13.2005 -0.487726Q13.2245 -0.608183 13.2601 -0.725712Q13.2958 -0.84324 13.3428 -0.956709Q13.3898 -1.07018 13.4477 -1.17849Q13.5056 -1.28681 13.5738 -1.38893Q13.642 -1.49104 13.7199 -1.58598Q13.7979 -1.68092 13.8847 -1.76777Q13.9716 -1.85461 14.0665 -1.93253Q14.1614 -2.01044 14.2635 -2.07867Q14.3657 -2.14691 14.474 -2.2048Q14.5823 -2.2627 14.6958 -2.3097Q14.8092 -2.3567 14.9268 -2.39235Q15.0443 -2.428 15.1648 -2.45196Q15.2852 -2.47592 15.4074 -2.48796Q15.5297 -2.5 15.6525 -2.5Q15.7753 -2.5 15.8975 -2.48796Q16.0197 -2.47592 16.1402 -2.45196Q16.2607 -2.428 16.3782 -2.39235Q16.4957 -2.3567 16.6092 -2.3097Q16.7227 -2.2627 16.831 -2.2048Q16.9393 -2.14691 17.0414 -2.07867Q17.1435 -2.01044 17.2385 -1.93253Q17.3334 -1.85461 17.4202 -1.76777Q17.5071 -1.68092 17.585 -1.58598Q17.6629 -1.49104 17.7311 -1.38893Q17.7994 -1.28681 17.8573 -1.17849Q17.9152 -1.07018 17.9622 -0.956709Q18.0092 -0.84324 18.0448 -0.725712Q18.0805 -0.608183 18.1044 -0.487726Q18.1284 -0.367269 18.1404 -0.245043Q18.1525 -0.122817 18.1525 0Z" fill="rgb(255,255,255)" fill-rule="nonzero" transform="matrix(0.894427,-0.447213,0.447213,0.894427,2.5,9.5)" />
		<path id="Линия 2" d="M0 -0.5L15.6525 -0.5L15.6525 0.5L0 0.5L0 -0.5ZM18.1525 0Q18.1525 0.122817 18.1404 0.245043Q18.1284 0.367269 18.1044 0.487726Q18.0805 0.608183 18.0448 0.725712Q18.0092 0.84324 17.9622 0.956709Q17.9152 1.07018 17.8573 1.17849Q17.7994 1.28681 17.7311 1.38893Q17.6629 1.49104 17.585 1.58598Q17.5071 1.68092 17.4202 1.76777Q17.3334 1.85461 17.2385 1.93253Q17.1435 2.01044 17.0414 2.07867Q16.9393 2.14691 16.831 2.2048Q16.7227 2.2627 16.6092 2.3097Q16.4957 2.3567 16.3782 2.39235Q16.2607 2.428 16.1402 2.45196Q16.0197 2.47592 15.8975 2.48796Q15.7753 2.5 15.6525 2.5Q15.5297 2.5 15.4074 2.48796Q15.2852 2.47592 15.1648 2.45196Q15.0443 2.428 14.9268 2.39235Q14.8092 2.3567 14.6958 2.3097Q14.5823 2.2627 14.474 2.2048Q14.3657 2.14691 14.2636 2.07867Q14.1614 2.01044 14.0665 1.93253Q13.9716 1.85461 13.8847 1.76777Q13.7979 1.68092 13.7199 1.58598Q13.642 1.49104 13.5738 1.38893Q13.5056 1.28681 13.4477 1.17849Q13.3898 1.07018 13.3428 0.956709Q13.2958 0.84324 13.2601 0.725712Q13.2245 0.608183 13.2005 0.487726Q13.1766 0.367269 13.1645 0.245043Q13.1525 0.122817 13.1525 0Q13.1525 -0.122817 13.1645 -0.245043Q13.1766 -0.367269 13.2005 -0.487726Q13.2245 -0.608183 13.2601 -0.725712Q13.2958 -0.84324 13.3428 -0.956709Q13.3898 -1.07018 13.4477 -1.17849Q13.5056 -1.28681 13.5738 -1.38893Q13.642 -1.49104 13.7199 -1.58598Q13.7979 -1.68092 13.8847 -1.76777Q13.9716 -1.85461 14.0665 -1.93253Q14.1614 -2.01044 14.2635 -2.07867Q14.3657 -2.14691 14.474 -2.2048Q14.5823 -2.2627 14.6958 -2.3097Q14.8092 -2.3567 14.9268 -2.39235Q15.0443 -2.428 15.1648 -2.45196Q15.2852 -2.47592 15.4074 -2.48796Q15.5297 -2.5 15.6525 -2.5Q15.7753 -2.5 15.8975 -2.48796Q16.0197 -2.47592 16.1402 -2.45196Q16.2607 -2.428 16.3782 -2.39235Q16.4957 -2.3567 16.6092 -2.3097Q16.7227 -2.2627 16.831 -2.2048Q16.9393 -2.14691 17.0414 -2.07867Q17.1435 -2.01044 17.2385 -1.93253Q17.3334 -1.85461 17.4202 -1.76777Q17.5071 -1.68092 17.585 -1.58598Q17.6629 -1.49104 17.7311 -1.38893Q17.7994 -1.28681 17.8573 -1.17849Q17.9152 -1.07018 17.9622 -0.956709Q18.0092 -0.84324 18.0448 -0.725712Q18.0805 -0.608183 18.1044 -0.487726Q18.1284 -0.367269 18.1404 -0.245043Q18.1525 -0.122817 18.1525 0Z" fill="rgb(255,255,255)" fill-rule="nonzero" transform="matrix(0.894427,0.447214,-0.447214,0.894427,2.5,9.5)" />
	</g>
</svg>
